<?xml version="1.0" encoding="UTF-8"?> <svg xmlns="http://www.w3.org/2000/svg" xmlns:xlink="http://www.w3.org/1999/xlink" version="1.1" id="Layer_1" x="0px" y="0px" viewBox="0 0 128 128" style="enable-background:new 0 0 128 128;" xml:space="preserve"> <style type="text/css"> .st0{fill:#FFE581;} .st1{fill:#445072;} </style> <g id="x31_1"> <path class="st0" d="M32.6,91.4c0-17.1,13.9-31,31-31s31,13.9,31,31"></path> <path class="st1" d="M96.5,91.4h-3.7c0-16.1-13.1-29.2-29.2-29.2S34.4,75.4,34.4,91.4h-3.7c0-18.1,14.8-32.9,32.9-32.9 S96.5,73.3,96.5,91.4z M63.6,34.7c1,0,1.9-0.8,1.9-1.9v-3.6c0-1-0.8-1.9-1.9-1.9s-1.9,0.8-1.9,1.9v3.6 C61.7,33.9,62.6,34.7,63.6,34.7z M63.6,54.5c1,0,1.9-0.8,1.9-1.9V39.3c0-1-0.8-1.9-1.9-1.9s-1.9,0.8-1.9,1.9v13.3 C61.7,53.7,62.6,54.5,63.6,54.5z M42.1,44l5.1,12.3c0.3,0.7,1,1.1,1.7,1.1c0.2,0,0.5,0,0.7-0.1c0.9-0.4,1.4-1.5,1-2.4l-5.1-12.3 c-0.4-0.9-1.5-1.4-2.4-1C42.1,41.9,41.7,43,42.1,44z M39.6,38c0.3,0.7,1,1.1,1.7,1.1c0.2,0,0.5,0,0.7-0.1c0.9-0.4,1.4-1.5,1-2.4 l-1.4-3.3c-0.4-0.9-1.5-1.4-2.4-1c-0.9,0.4-1.4,1.5-1,2.4L39.6,38z M85.1,39c0.2,0.1,0.5,0.1,0.7,0.1c0.7,0,1.4-0.4,1.7-1.1 l1.4-3.3c0.4-0.9-0.1-2-1-2.4c-0.9-0.4-2,0.1-2.4,1l-1.4,3.3C83.7,37.5,84.2,38.6,85.1,39z M77.6,57.3c0.2,0.1,0.5,0.1,0.7,0.1 c0.7,0,1.4-0.4,1.7-1.1L85.1,44c0.4-0.9-0.1-2-1-2.4s-2,0.1-2.4,1l-5.1,12.3C76.2,55.8,76.6,56.9,77.6,57.3z M97.3,77.1 c0.3,0.7,1,1.1,1.7,1.1c0.2,0,0.5,0,0.7-0.1L112,73c0.9-0.4,1.4-1.5,1-2.4s-1.5-1.4-2.4-1l-12.3,5.1C97.4,75,96.9,76.1,97.3,77.1z M117.3,70.6c0.2,0,0.5,0,0.7-0.1l3.3-1.4c0.9-0.4,1.4-1.5,1-2.4s-1.5-1.4-2.4-1l-3.3,1.4c-0.9,0.4-1.4,1.5-1,2.4 C115.9,70.2,116.6,70.6,117.3,70.6z M5.8,69.1l3.3,1.4c0.2,0.1,0.5,0.1,0.7,0.1c0.7,0,1.4-0.4,1.7-1.1c0.4-0.9-0.1-2-1-2.4 l-3.3-1.4c-0.9-0.4-2,0.1-2.4,1C4.4,67.6,4.9,68.7,5.8,69.1z M15.1,72.9L27.4,78c0.2,0.1,0.5,0.1,0.7,0.1c0.7,0,1.4-0.4,1.7-1.1 c0.4-0.9-0.1-2-1-2.4l-12.3-5.1c-0.9-0.4-2,0.1-2.4,1C13.7,71.5,14.1,72.6,15.1,72.9z M104.7,51.8c0.5,0,0.9-0.2,1.3-0.5l2.5-2.5 c0.7-0.7,0.7-1.9,0-2.6c-0.7-0.7-1.9-0.7-2.6,0l-2.5,2.5c-0.7,0.7-0.7,1.9,0,2.6C103.8,51.6,104.2,51.8,104.7,51.8z M89.4,65.2 c0.4,0.4,0.8,0.5,1.3,0.5s0.9-0.2,1.3-0.5l9.4-9.4c0.7-0.7,0.7-1.9,0-2.6c-0.7-0.7-1.9-0.7-2.6,0l-9.4,9.4 C88.7,63.3,88.7,64.5,89.4,65.2z M100.1,91c0,1,0.8,1.9,1.9,1.9h13.3c1,0,1.9-0.8,1.9-1.9c0-1-0.8-1.9-1.9-1.9H102 C100.9,89.2,100.1,90,100.1,91z M119.9,91c0,1,0.8,1.9,1.9,1.9h3.6c1,0,1.9-0.8,1.9-1.9c0-1-0.8-1.9-1.9-1.9h-3.6 C120.7,89.2,119.9,90,119.9,91z M1.9,92.9h3.6c1,0,1.9-0.8,1.9-1.9c0-1-0.8-1.9-1.9-1.9H1.9C0.8,89.2,0,90,0,91 C0,92.1,0.8,92.9,1.9,92.9z M10,91c0,1,0.8,1.9,1.9,1.9h13.3c1,0,1.9-0.8,1.9-1.9c0-1-0.8-1.9-1.9-1.9H11.9C10.8,89.2,10,90,10,91z M35.1,65.2c0.4,0.4,0.8,0.5,1.3,0.5s0.9-0.2,1.3-0.5c0.7-0.7,0.7-1.9,0-2.6l-9.4-9.4c-0.7-0.7-1.9-0.7-2.6,0s-0.7,1.9,0,2.6 L35.1,65.2z M21.2,51.2c0.4,0.4,0.8,0.5,1.3,0.5s0.9-0.2,1.3-0.5c0.7-0.7,0.7-1.9,0-2.6l-2.5-2.5c-0.7-0.7-1.9-0.7-2.6,0 s-0.7,1.9,0,2.6L21.2,51.2z M126.1,96.8H66.4V78.5l3.5,4.3l2.9-2.3l-8.2-10.1l-8.2,10.1l2.9,2.3l3.5-4.3v18.4H1.9 c-1,0-1.9,0.8-1.9,1.9s0.8,1.9,1.9,1.9h124.3c1,0,1.9-0.8,1.9-1.9S127.2,96.8,126.1,96.8z"></path> </g> <g id="Layer_1_00000074420155688143485750000007972911925729430410"> </g> </svg>