<?xml version="1.0" encoding="UTF-8"?> <svg xmlns="http://www.w3.org/2000/svg" xmlns:xlink="http://www.w3.org/1999/xlink" version="1.1" id="Layer_1" x="0px" y="0px" viewBox="0 0 128 128" style="enable-background:new 0 0 128 128;" xml:space="preserve"> <style type="text/css"> .st0{fill:#FFE581;} .st1{fill:#445072;} </style> <g id="x31_2"> <path class="st0" d="M32.6,91.4c0-17.1,13.9-31,31-31s31,13.9,31,31"></path> <path class="st1" d="M96.5,91.4h-3.7c0-16.1-13.1-29.2-29.2-29.2S34.4,75.4,34.4,91.4h-3.7c0-18.1,14.8-32.9,32.9-32.9 S96.5,73.3,96.5,91.4z M65.4,52.7V39.3c0-1-0.8-1.9-1.9-1.9s-1.9,0.8-1.9,1.9v13.3c0,1,0.8,1.9,1.9,1.9 C64.6,54.5,65.4,53.7,65.4,52.7z M65.4,32.9v-3.6c0-1-0.8-1.9-1.9-1.9s-1.9,0.8-1.9,1.9v3.6c0,1,0.8,1.9,1.9,1.9 C64.6,34.7,65.4,33.9,65.4,32.9z M49.6,57.3c0.9-0.4,1.4-1.5,1-2.4l-5.1-12.3c-0.4-0.9-1.5-1.4-2.4-1s-1.4,1.5-1,2.4l5.1,12.3 c0.3,0.7,1,1.1,1.7,1.1C49.1,57.4,49.4,57.4,49.6,57.3z M42,39c0.9-0.4,1.4-1.5,1-2.4l-1.4-3.3c-0.4-0.9-1.5-1.4-2.4-1 c-0.9,0.4-1.4,1.5-1,2.4l1.4,3.3c0.3,0.7,1,1.1,1.7,1.1C41.6,39.2,41.8,39.1,42,39z M80,56.3L85.1,44c0.4-0.9-0.1-2-1-2.4 s-2,0.1-2.4,1l-5.1,12.3c-0.4,0.9,0.1,2,1,2.4c0.2,0.1,0.5,0.1,0.7,0.1C79,57.4,79.7,57,80,56.3z M87.5,38l1.4-3.3 c0.4-0.9-0.1-2-1-2.4c-0.9-0.4-2,0.1-2.4,1l-1.4,3.3c-0.4,0.9,0.1,2,1,2.4c0.2,0.1,0.5,0.1,0.7,0.1C86.6,39.2,87.3,38.7,87.5,38z M99.7,78.1L112,73c0.9-0.4,1.4-1.5,1-2.4s-1.5-1.4-2.4-1l-12.3,5.1c-0.9,0.4-1.4,1.5-1,2.4c0.3,0.7,1,1.1,1.7,1.1 C99.3,78.2,99.5,78.2,99.7,78.1z M118,70.5l3.3-1.4c0.9-0.4,1.4-1.5,1-2.4s-1.5-1.4-2.4-1l-3.3,1.4c-0.9,0.4-1.4,1.5-1,2.4 c0.3,0.7,1,1.1,1.7,1.1C117.5,70.6,117.8,70.6,118,70.5z M29.8,77.1c0.4-0.9-0.1-2-1-2.4l-12.3-5.1c-0.9-0.4-2,0.1-2.4,1 s0.1,2,1,2.4l12.3,5.1c0.2,0.1,0.5,0.1,0.7,0.1C28.9,78.2,29.5,77.8,29.8,77.1z M11.6,69.5c0.4-0.9-0.1-2-1-2.4l-3.3-1.4 c-0.9-0.4-2,0.1-2.4,1s0.1,2,1,2.4l3.3,1.4c0.2,0.1,0.5,0.1,0.7,0.1C10.6,70.6,11.3,70.2,11.6,69.5z M92,65.2l9.4-9.4 c0.7-0.7,0.7-1.9,0-2.6c-0.7-0.7-1.9-0.7-2.6,0l-9.4,9.4c-0.7,0.7-0.7,1.9,0,2.6c0.4,0.4,0.8,0.5,1.3,0.5 C91.2,65.8,91.7,65.6,92,65.2z M106,51.2l2.5-2.5c0.7-0.7,0.7-1.9,0-2.6c-0.7-0.7-1.9-0.7-2.6,0l-2.5,2.5c-0.7,0.7-0.7,1.9,0,2.6 c0.4,0.4,0.8,0.5,1.3,0.5C105.2,51.8,105.6,51.6,106,51.2z M127.2,91c0-1-0.8-1.9-1.9-1.9h-3.6c-1,0-1.9,0.8-1.9,1.9 c0,1,0.8,1.9,1.9,1.9h3.6C126.3,92.9,127.2,92.1,127.2,91z M117.2,91c0-1-0.8-1.9-1.9-1.9H102c-1,0-1.9,0.8-1.9,1.9 c0,1,0.8,1.9,1.9,1.9h13.3C116.3,92.9,117.2,92.1,117.2,91z M27.1,91c0-1-0.8-1.9-1.9-1.9H11.9c-1,0-1.9,0.8-1.9,1.9 c0,1,0.8,1.9,1.9,1.9h13.3C26.2,92.9,27.1,92.1,27.1,91z M7.3,91c0-1-0.8-1.9-1.9-1.9H1.9C0.8,89.2,0,90,0,91s0.8,1.9,1.9,1.9h3.6 C6.5,92.9,7.3,92.1,7.3,91z M37.8,65.2c0.7-0.7,0.7-1.9,0-2.6l-9.4-9.4c-0.7-0.7-1.9-0.7-2.6,0s-0.7,1.9,0,2.6l9.4,9.4 c0.4,0.4,0.8,0.5,1.3,0.5S37.4,65.6,37.8,65.2z M23.8,51.2c0.7-0.7,0.7-1.9,0-2.6l-2.5-2.5c-0.7-0.7-1.9-0.7-2.6,0s-0.7,1.9,0,2.6 l2.5,2.5c0.4,0.4,0.8,0.5,1.3,0.5S23.4,51.6,23.8,51.2z M128,98.7c0-1-0.8-1.9-1.9-1.9H1.9c-1,0-1.9,0.8-1.9,1.9s0.8,1.9,1.9,1.9 h124.3C127.2,100.6,128,99.7,128,98.7z M72.8,87.2l-2.9-2.3l-3.5,4.3V70.4h-3.7v18.7l-3.5-4.3l-2.9,2.3l8.2,10.1L72.8,87.2z"></path> </g> <g id="Layer_1_00000066484204944473180160000012266798494682178972"> </g> </svg>